<svg xmlns="http://www.w3.org/2000/svg" viewBox="0 0 40 60" width="40" height="60"><style>.a{fill:#ff7b29}</style><path fill-rule="evenodd" class="a" d="m20.1 7c-0.6 0-1.2-0.5-1.2-1.1 0-0.7 0.6-1.2 1.2-1.2 0.7 0 1.2 0.5 1.2 1.2 0 0.6-0.5 1.1-1.2 1.1zm8.1 13c0 4.5-3.7 8.1-8.2 8.1h-0.1c-4.5 0-8.2-3.7-8.1-8.2 0-4.6 3.7-8.2 8.3-8.2 4.5 0.1 8.2 3.8 8.1 8.3zm-2.3 0c0-3.3-2.6-5.9-5.9-5.9-3.2 0-5.9 2.6-5.9 5.8 0 3.2 2.6 5.9 5.9 5.9 3.2 0 5.9-2.6 5.9-5.8zm9.4 0c0 0.7-0.5 1.2-1.2 1.2-0.6 0-1.2-0.5-1.2-1.2 0.1-5.5-3.4-10.4-8.6-12.2-0.6-0.2-0.9-0.9-0.7-1.5 0.2-0.6 0.9-0.9 1.5-0.7 6.2 2.1 10.2 8 10.2 14.4z"></path><path fill-rule="evenodd" class="a" d="m40 51.8c0 2.4-2.2 4.6-6.3 6.1-3.7 1.3-8.5 2.1-13.7 2.1-5.2 0-10-0.8-13.7-2.1-4.1-1.5-6.3-3.7-6.3-6.1 0-3.6 5-6.5 12.8-7.7-7.9-10.1-12.9-15.3-12.8-24.3 0.1-11 9-19.8 20-19.8 11.1 0 20.1 9 20 20.1-0.1 8.7-5 14-12.8 24 7.9 1.2 12.8 4.1 12.8 7.7zm-24.1-7.5c1.5 1.9 2.8 3.7 4.1 5.5 1.3-1.8 2.6-3.6 4.1-5.5 8.3-10.8 13.5-15.9 13.5-24.2 0.1-9.8-7.8-17.8-17.6-17.8-9.7 0-17.6 7.8-17.6 17.5-0.1 8.5 4.9 13.3 13.5 24.5zm21.7 7.5c0-2.1-4.5-4.6-12-5.5-1.7 2.1-3.2 4.2-4.6 6.2q-0.1 0.1-0.2 0.2-0.1 0.1-0.3 0.1-0.1 0.1-0.2 0.1-0.2 0.1-0.3 0.1-0.1 0-0.3-0.1-0.1 0-0.2-0.1-0.2 0-0.3-0.1-0.1-0.1-0.2-0.2c-1.4-2.1-2.9-4.1-4.5-6.2-7.6 0.9-12.1 3.4-12.1 5.5 0 2.8 7.5 5.9 17.6 5.9 10.1 0 17.6-3.1 17.6-5.9z"></path></svg>