<svg xmlns="http://www.w3.org/2000/svg" viewBox="0 0 40 40" width="40" height="40"><style>.a{fill:#ff7b29}</style><path fill-rule="evenodd" class="a" d="m7 26.4c1.2 0 2.2 1 2.2 2.2 0 1.2-1 2.2-2.2 2.2-1.2 0-2.2-1-2.2-2.2 0-1.2 1-2.2 2.2-2.2zm-0.6 2.9h1.3v-1.3h-1.3zm7-2.9c1.2 0 2.2 1 2.2 2.2 0 1.2-1 2.2-2.2 2.2-1.2 0-2.2-1-2.2-2.2 0-1.2 1-2.2 2.2-2.2zm-0.7 2.9h1.3v-1.3h-1.3zm-5.7 3.1c1.2 0 2.2 1 2.2 2.2 0 1.3-1 2.3-2.2 2.3-1.2 0-2.2-1-2.2-2.3 0-1.2 1-2.2 2.2-2.2zm0.7 1.6h-1.3v1.3h1.3zm5.7-1.6c1.2 0 2.2 1 2.2 2.2 0 1.3-1 2.3-2.2 2.3-1.2 0-2.2-1-2.2-2.3 0-1.2 1-2.2 2.2-2.2zm-0.7 2.9h1.3v-1.3h-1.3zm-0.6-14.6q0 0.3-0.2 0.6-0.3 0.2-0.6 0.2-0.3 0-0.5-0.2-0.3-0.3-0.3-0.6 0-0.3 0.3-0.5 0.2-0.3 0.5-0.3 0.1 0 0.2 0.1 0.1 0 0.1 0 0.1 0 0.2 0.1 0 0 0.1 0.1 0.2 0.2 0.2 0.5z"></path><path fill-rule="evenodd" class="a" d="m40 39.2c0 0.5-0.3 0.8-0.8 0.8h-38.4c-0.5 0-0.8-0.3-0.8-0.8 0-0.4 0.3-0.8 0.8-0.8h0.8v-14.3c0-0.5 0.3-0.8 0.7-0.8h15.7c0.4 0 0.7 0.3 0.7 0.8v14.3h4v-1.5h-2.7c-0.4 0-0.8-0.4-0.8-0.8 0-0.4 0.4-0.8 0.8-0.8h2.7v-2.8h-2.7c-0.4 0-0.8-0.4-0.8-0.8 0-0.4 0.4-0.8 0.8-0.8h2.7v-2.8h-2.7c-0.4 0-0.8-0.3-0.8-0.8 0-0.4 0.4-0.7 0.8-0.7h2.7v-2.9h-2.7c-0.4 0-0.8-0.3-0.8-0.7 0-0.5 0.4-0.8 0.8-0.8h2.7v-2.8h-2.7c-0.4 0-0.8-0.4-0.8-0.8 0-0.4 0.4-0.8 0.8-0.8h2.7v-2.8h-2.7c-0.4 0-0.8-0.4-0.8-0.8 0-0.4 0.4-0.8 0.8-0.8h2.7v-3.1h-10.6v7.3c0 0.5-0.3 0.8-0.8 0.8-0.4 0-0.8-0.3-0.8-0.8v-8.1c0-0.4 0.4-0.7 0.8-0.7h7.9v-8q0-0.2 0.1-0.4 0.1-0.2 0.3-0.3 0.2-0.1 0.4-0.1 0.2 0 0.4 0.1l13.1 7c0.3 0.1 0.4 0.4 0.4 0.6v10.1h3.8c0.4 0 0.7 0.4 0.7 0.8v19.8h0.8c0.5 0 0.8 0.4 0.8 0.8zm-36.9-0.8h14.1v-13.6h-14.1zm24.6-20.6h4.7v-9.6l-11.6-6.1v6.7h2.7c0.4 0 0.8 0.3 0.8 0.7v28.9h2.6v-19.8c0-0.4 0.3-0.8 0.8-0.8zm9.2 1.6h-8.5v19h8.5v-1.5h-2.4c-0.4 0-0.8-0.4-0.8-0.8 0-0.4 0.4-0.8 0.8-0.8h2.4v-2.8h-4.2c-0.5 0-0.8-0.3-0.8-0.8 0-0.4 0.3-0.8 0.8-0.8h4.2v-2.8h-4.2c-0.5 0-0.8-0.3-0.8-0.8 0-0.4 0.3-0.7 0.8-0.7h4.2v-2.8h-4.2c-0.5 0-0.8-0.4-0.8-0.8 0-0.5 0.3-0.8 0.8-0.8h4.2z"></path><path class="a" d="m31.5 35.5q0 0-0.1-0.1-0.1 0-0.1 0-0.1-0.1-0.2-0.1-0.1 0-0.1 0-0.4 0-0.6 0.2-0.2 0.3-0.2 0.6 0 0.3 0.2 0.5 0.1 0.1 0.1 0.1 0.1 0.1 0.2 0.1 0 0 0.1 0.1 0.1 0 0.2 0 0.3 0 0.5-0.3 0.1 0 0.1-0.1 0.1 0 0.1-0.1 0-0.1 0-0.2 0 0 0-0.1 0-0.3-0.2-0.6zm-4.6-26.7c-0.5 0-0.8 0.4-0.8 0.8v1.5c0 0.4 0.3 0.7 0.8 0.7 0.4 0 0.8-0.3 0.8-0.7v-1.5c0-0.4-0.4-0.8-0.8-0.8zm0 4.6c-0.5 0-0.8 0.4-0.8 0.8v1.6c0 0.5 0.3 0.8 0.8 0.8 0.4 0 0.8-0.3 0.8-0.8v-1.6c0-0.4-0.4-0.8-0.8-0.8zm3.1-4.6c-0.4 0-0.8 0.4-0.8 0.8v1.5c0 0.4 0.4 0.7 0.8 0.7 0.4 0 0.8-0.3 0.8-0.7v-1.5c0-0.4-0.4-0.8-0.8-0.8zm0 4.6c-0.4 0-0.8 0.4-0.8 0.8v1.6c0 0.5 0.4 0.8 0.8 0.8 0.4 0 0.8-0.3 0.8-0.8v-1.6c0-0.4-0.4-0.8-0.8-0.8z"></path></svg>