<svg xmlns="http://www.w3.org/2000/svg" viewBox="0 0 41 49" width="41" height="49"><style>.a{fill:#ff7b29}</style><path class="a" d="m30.2 12.7q0 0.5 0 0.9-0.1 0.2-0.1 0.4c0 0.1 0 0.3 0 0 0 0.1 0 0.2 0 0.3q-0.2 0.8-0.4 1.6-0.2 0.4-0.3 0.8c-0.1 0.2 0.1-0.2 0 0q0 0.1-0.1 0.2-0.1 0.2-0.2 0.4-0.4 0.7-0.8 1.4c-0.1 0.1-0.2 0.2-0.3 0.3 0.2-0.2 0.1-0.1 0 0q0 0.1-0.1 0.1-0.3 0.4-0.6 0.7-0.2 0.3-0.5 0.5-0.2 0.2-0.3 0.3-0.1 0-0.2 0.1 0 0-0.1 0.1 0.2-0.1 0.1 0-0.7 0.4-1.4 0.8-0.3 0.2-0.7 0.4-0.1 0-0.1 0.1c-0.3 0.1 0.2-0.1-0.1 0q-0.2 0.1-0.4 0.1-0.8 0.3-1.6 0.5-0.2 0-0.4 0.1-0.1 0-0.2 0c0.2 0 0.1 0 0 0q-0.4 0-0.9 0.1-0.9 0-1.7-0.1c-0.3 0 0.2 0 0 0q-0.1 0-0.2 0-0.2-0.1-0.4-0.1-0.5-0.1-0.9-0.2-0.4-0.1-0.8-0.3-0.1 0-0.3-0.1 0 0 0 0-0.2-0.1 0 0c0 0-0.2-0.1-0.2-0.1q-0.8-0.4-1.5-0.8-0.1-0.1-0.3-0.2c-0.1-0.1-0.2-0.2-0.3-0.3 0.1 0.2 0.1 0.1 0 0q-0.1 0-0.2-0.1-0.1-0.2-0.3-0.3-0.6-0.6-1.1-1.2-0.1 0-0.1-0.1c-0.1-0.1-0.2-0.2 0 0-0.1-0.1-0.2-0.2-0.3-0.3q-0.2-0.4-0.4-0.8-0.2-0.3-0.4-0.7-0.1-0.1-0.2-0.3 0-0.1-0.1-0.2 0-0.1 0 0.1 0-0.1 0-0.2-0.3-0.7-0.5-1.5-0.1-0.4-0.2-0.8 0-0.1 0-0.2c0-0.3 0 0.2 0 0q0-0.3 0-0.5-0.1-0.9 0-1.8 0-0.2 0-0.4c0-0.2 0 0.2 0 0q0-0.1 0-0.2 0.1-0.4 0.2-0.9 0.2-0.8 0.5-1.5c0.1-0.2-0.1 0.2 0 0q0.1-0.1 0.1-0.2 0.1-0.2 0.2-0.4 0.2-0.3 0.4-0.7 0.2-0.4 0.4-0.7c0.1-0.1 0.2-0.2 0.3-0.3-0.2 0.1-0.1 0.1 0 0q0.1-0.1 0.1-0.2 0.6-0.6 1.1-1.1 0.2-0.2 0.3-0.3 0.1-0.1 0.2-0.1c0.1-0.1 0.1-0.2 0 0 0.1-0.1 0.2-0.2 0.3-0.3q0.2-0.1 0.4-0.2 0.7-0.5 1.4-0.8c0.1 0 0.2-0.1 0.2-0.1q0 0-0.1 0.1 0.1-0.1 0.1-0.1 0.2-0.1 0.4-0.1 0.4-0.2 0.8-0.3 0.4-0.1 0.8-0.2 0.2 0 0.4-0.1 0.1 0 0.2 0 0.2 0-0.1 0h0.2q0.8-0.1 1.7-0.1 0.4 0.1 0.8 0.1c0.1 0 0.2 0 0 0q0.1 0 0.2 0 0.2 0.1 0.5 0.1 0.8 0.2 1.6 0.5 0.2 0.1 0.4 0.1c0.2 0.1-0.2-0.1 0 0q0.1 0.1 0.2 0.1 0.3 0.2 0.7 0.4 0.4 0.2 0.7 0.4 0.1 0.1 0.3 0.2c0.1 0.1 0.3 0.2 0.3 0.3-0.1-0.2 0-0.1 0 0q0.1 0 0.2 0.1 0.1 0.1 0.3 0.3 0.3 0.3 0.6 0.6 0.3 0.3 0.5 0.6 0.1 0 0.2 0.1c0 0.1 0.1 0.1 0 0 0.1 0.1 0.2 0.3 0.2 0.4q0.5 0.6 0.8 1.4 0.1 0.1 0.2 0.3 0.1 0.1 0.1 0.2c0.1 0.2-0.1-0.2 0 0q0.2 0.4 0.3 0.8 0.3 0.8 0.4 1.7 0 0.1 0 0.2c0-0.3 0-0.1 0 0q0.1 0.2 0.1 0.4 0 0.4 0 0.8c0 0.6 0.5 1.1 1 1.1 0.5-0.1 1-0.5 1-1.1 0-2.4-0.8-4.9-2.2-6.9-1.4-2.1-3.4-3.6-5.8-4.5-2.3-0.8-5-0.9-7.4-0.2-2.3 0.6-4.4 2-6 3.9-1.6 1.9-2.5 4.3-2.8 6.9-0.1 2.4 0.5 5 1.8 7.1 1.2 2.1 3.1 3.8 5.3 4.8 2.3 1 4.9 1.3 7.4 0.8 2.4-0.4 4.6-1.7 6.3-3.4 1.7-1.8 2.9-4.1 3.2-6.5q0.2-1 0.2-2c0-0.5-0.5-1-1-1-0.6 0.1-1 0.5-1 1zm6.5 33.8h-33.1q-0.1 0-0.2 0c0 0-0.1 0-0.1 0 0 0 0.2 0.1 0 0q-0.1 0-0.2 0-0.1-0.1-0.1-0.1c-0.1 0 0.1 0.1 0 0.1q-0.1-0.1-0.2-0.2-0.1 0-0.2-0.1c0 0 0.1 0.1 0.1 0.1 0 0-0.1-0.1-0.1-0.1q-0.1-0.1-0.2-0.2c-0.1-0.1 0.1 0.2 0 0q0-0.1-0.1-0.2 0-0.1-0.1-0.1c0-0.2 0.1 0 0.1 0-0.1 0-0.1-0.4-0.2-0.4 0.1 0.1 0.1 0.1 0.1 0q0 0-0.1-0.1v-5.8c0-0.5 0.1-1 0.1-1.5 0 0 0 0.2 0 0.1q0-0.1 0-0.2 0.1-0.1 0.1-0.2 0-0.3 0.1-0.5 0.1-0.5 0.2-1 0.2-0.4 0.4-0.9c0-0.2-0.1 0.2 0-0.1q0-0.1 0.1-0.2 0.1-0.2 0.2-0.4 0.5-0.9 1-1.7c0.2-0.1-0.1 0.2 0.1 0q0-0.1 0.1-0.2 0.2-0.2 0.3-0.3 0.4-0.4 0.7-0.8 0.4-0.3 0.8-0.6c0.1-0.1-0.2 0.1 0 0q0.1-0.1 0.2-0.1 0.2-0.2 0.4-0.3 0.8-0.6 1.7-1c0.2 0-0.2 0.1 0 0q0.1 0 0.2-0.1 0.3-0.1 0.6-0.1 0.4-0.2 0.9-0.3 0.5-0.1 1-0.2c0 0 0.1 0 0.1 0 0 0-0.2 0-0.1 0q0.1 0 0.3 0 0.2-0.1 0.5-0.1 0.6 0 1.2 0h14.2c0.5 0 0.9 0.1 1.4 0.1 0 0-0.2 0-0.1 0q0.1 0 0.2 0 0.1 0 0.2 0 0.3 0.1 0.5 0.1 0.5 0.2 1 0.3 0.4 0.2 0.9 0.3c0.2 0.1-0.2 0 0 0.1q0.2 0 0.3 0.1 0.2 0.1 0.4 0.2 0.9 0.4 1.7 1c0.1 0.1-0.2-0.1 0 0q0.1 0.1 0.2 0.2 0.2 0.1 0.3 0.3 0.4 0.3 0.7 0.7 0.4 0.4 0.7 0.7c0.1 0.2-0.1-0.1 0 0.1q0.1 0.1 0.1 0.2 0.2 0.2 0.3 0.4 0.5 0.8 0.9 1.7c0.1 0.1 0-0.2 0.1 0q0 0.1 0 0.2 0.1 0.3 0.2 0.5 0.2 0.5 0.3 1 0.1 0.5 0.2 1c0 0 0 0.1 0 0.1 0 0 0-0.2 0-0.1q0 0.1 0 0.3 0 0.2 0 0.5 0.1 0.9 0.1 1.8 0 2.3 0 4.6v0.1c0 0-0.1 0.3 0 0.1 0-0.1-0.1 0.1-0.1 0.2 0 0 0 0.2-0.1 0.2 0 0 0.1-0.2 0.1-0.1q0 0.1-0.1 0.1 0 0.1-0.1 0.3 0 0-0.1 0c0 0.1 0.2-0.1 0.1 0q-0.1 0.1-0.2 0.2 0 0 0 0-0.1 0-0.1 0-0.1 0.1 0 0c0.1 0 0.1 0 0 0q0 0.1-0.1 0.1-0.1 0.1-0.2 0.1c-0.2 0.1 0.2 0 0 0q-0.1 0.1-0.2 0.1-0.1 0-0.1 0c-0.2 0.1 0 0 0 0 0 0-0.2 0-0.2 0-0.6 0-1.1 0.5-1 1 0 0.6 0.4 1.1 1 1.1 1.8-0.1 3.2-1.5 3.4-3.3 0-0.5 0-1.1 0-1.6 0-1.6 0-3.1 0-4.6-0.1-3-1.2-5.8-3.1-8-1.7-2.1-4.3-3.6-7-4.2-1.4-0.2-2.7-0.2-4-0.2h-10.8c-1 0-1.9 0-2.9 0-2.9 0.1-5.7 1.2-7.9 3.1-2.1 1.8-3.5 4.4-4 7.2-0.4 1.7-0.3 3.5-0.3 5.3v2.5q0 0.3 0 0.7c0.2 0.8 0.5 1.6 1.2 2.2q1 0.9 2.3 0.9h33.1c0.5 0 1-0.5 1-1.1-0.1-0.5-0.5-1-1-1z"></path></svg>