<svg xmlns="http://www.w3.org/2000/svg" xmlns:xlink="http://www.w3.org/1999/xlink" width="50" height="50" x="0" y="0" viewBox="0 0 512 512" style="enable-background:new 0 0 512 512" xml:space="preserve"><g><path d="M235.627 346.311h10.352c15.099-.96 60.332-30.249 60.332-78.35v-16.392c0-10.407 11.706-16.516 20.242-10.563h0a56.856 56.856 0 0 1 24.337 46.638v7.996c0 7.825-10.182 49.46-10.182 49.46s.825 36.987-22.772 60.585M216.34 346.311h19.287M246.788 468.727h-35.114M243.624 457.14c4.265 26.842 27.515 47.36 55.558 47.36h93.372" style="stroke-width:15;stroke-linecap:round;stroke-linejoin:round;stroke-miterlimit:10;" fill="none" stroke="#ff7b29" stroke-width="15" stroke-linecap="round" stroke-linejoin="round" stroke-miterlimit="10" data-original="#000000" opacity="1"></path><path d="M339.226 482.547h0c0 12.124 9.828 21.952 21.952 21.952h43.296c12.124 0 21.952-9.828 21.952-21.952h0c0-12.124-9.828-21.952-21.952-21.952h-43.296c-12.124 0-21.952 9.828-21.952 21.952zM348.624 438.56v.164c0 12.079 9.792 21.87 21.87 21.87h45.579c12.079 0 21.87-9.792 21.87-21.87v-.164c0-12.079-9.792-21.87-21.87-21.87h-45.579c-12.078 0-21.87 9.792-21.87 21.87zM359.083 394.655v.164c0 12.079 9.792 21.87 21.87 21.87h45.579c12.079 0 21.87-9.792 21.87-21.87v-.164c0-12.079-9.792-21.87-21.87-21.87h-45.579c-12.079 0-21.87 9.792-21.87 21.87zM369.541 350.751v.164c0 12.079 9.792 21.87 21.87 21.87h45.579c12.079 0 21.87-9.792 21.87-21.87v-.164c0-12.079-9.792-21.87-21.87-21.87h-45.579c-12.078-.001-21.87 9.791-21.87 21.87zM345.423 345.1h20.789M116.292 488.05h-48.02c-8.358 0-15.133-6.775-15.133-15.133V337.311c0-8.358 6.775-15.133 15.133-15.133H183.51c15.555 0 28.164 12.61 28.164 28.164v109.545c0 15.555-12.609 28.164-28.164 28.164h-32.218M349.435 52.308l4.717 9.558a10.791 10.791 0 0 0 8.125 5.903l53.358 7.753c8.851 1.286 12.385 12.163 5.98 18.406l-38.611 37.636a10.79 10.79 0 0 0-3.103 9.551l9.115 53.143c1.512 8.815-7.741 15.538-15.657 11.376l-47.725-25.091a10.79 10.79 0 0 0-10.043 0l-47.725 25.091c-7.917 4.162-17.169-2.56-15.657-11.376l9.115-53.143c.6-3.501-.56-7.072-3.103-9.551L219.61 93.929c-6.405-6.243-2.87-17.12 5.98-18.406l53.358-7.753a10.791 10.791 0 0 0 8.125-5.903l23.863-48.351c3.958-8.02 15.395-8.02 19.353 0l3.004 6.087M394.055 259.513l-13.503-16.335M437.944 223.233l-13.503-16.335M247.171 259.513l13.503-16.335M203.283 223.233l13.502-16.335" style="stroke-width:15;stroke-linecap:round;stroke-linejoin:round;stroke-miterlimit:10;" fill="none" stroke="#ff7b29" stroke-width="15" stroke-linecap="round" stroke-linejoin="round" stroke-miterlimit="10" data-original="#000000" opacity="1"></path><circle cx="320.613" cy="117.63" r="25.863" style="stroke-width:15;stroke-linecap:round;stroke-linejoin:round;stroke-miterlimit:10;" fill="none" stroke="#ff7b29" stroke-width="15" stroke-linecap="round" stroke-linejoin="round" stroke-miterlimit="10" data-original="#000000" opacity="1"></circle></g></svg>