<svg xmlns="http://www.w3.org/2000/svg" xmlns:xlink="http://www.w3.org/1999/xlink" width="50" height="50" x="0" y="0" viewBox="0 0 64 64" style="enable-background:new 0 0 512 512" xml:space="preserve"><g><path d="M12.562 16.78a1.267 1.267 0 0 0 0 2.533 1.267 1.267 0 0 0 0-2.533zM15.966 19.046h9.546a1 1 0 0 0 0-2h-9.546a1 1 0 0 0 0 2zM24.176 14.05a1 1 0 0 0-1-1H13.63a1 1 0 0 0 0 2h9.546a1 1 0 0 0 1-1zM38.488 49.173a1.267 1.267 0 0 0 2.533 0 1.267 1.267 0 0 0-2.533 0zM42.16 49.174a1 1 0 0 0 1 1h9.545a1 1 0 0 0 0-2H43.16a1 1 0 0 0-1 1zM50.37 44.178h-9.546a1 1 0 0 0 0 2h9.546a1 1 0 0 0 0-2zM22.581 48.733a2.796 2.796 0 0 1 .583-3.118c2.192-1.13 2.976-3.479 1.752-5.164 1.666-6.596-2.556-9.79-6.822-9.804-4.268-.03-8.543 3.227-6.861 9.804-1.219 1.688-.445 4.032 1.75 5.163a2.798 2.798 0 0 1 .585 3.12c-2.032.645-10.12 3.63-9.54 10.066a1 1 0 0 0 1.993-.18c-.5-5.537 8.429-8.066 8.519-8.091a.997.997 0 0 0 .612-.484 4.838 4.838 0 0 0-.904-5.988c-.802-.478-1.565-1.095-1.593-1.626-.022-1.165.864-1.051.632-1.996-.681-2.633-.503-4.636.53-5.953a5.862 5.862 0 0 1 8.515 0c1.033 1.316 1.21 3.319.53 5.953-.231.939.646.835.634 1.985-.023.534-.785 1.155-1.595 1.637a4.838 4.838 0 0 0-.904 5.989 1 1 0 0 0 .612.483c.09.026 9.018 2.554 8.519 8.09a1 1 0 0 0 1.992.18c.58-6.436-7.507-9.42-9.539-10.066zM50.432 22.377a2.797 2.797 0 0 1 .583-3.118c2.193-1.13 2.976-3.48 1.752-5.164 1.665-6.582-2.552-9.8-6.822-9.804-4.26-.032-8.545 3.224-6.861 9.804-1.219 1.688-.445 4.032 1.75 5.163a2.797 2.797 0 0 1 .584 3.119c-2.031.645-10.118 3.63-9.538 10.066a1 1 0 0 0 1.992-.18c-.5-5.537 8.428-8.065 8.519-8.09a1 1 0 0 0 .612-.484 4.838 4.838 0 0 0-.904-5.988c-.802-.479-1.564-1.095-1.593-1.626-.022-1.166.864-1.052.632-1.996-.681-2.635-.503-4.637.53-5.953a5.858 5.858 0 0 1 8.516 0c1.032 1.316 1.21 3.32.529 5.953-.231.939.646.835.634 1.984-.023.535-.785 1.156-1.595 1.638a4.838 4.838 0 0 0-.904 5.987.997.997 0 0 0 .612.485c.09.025 9.018 2.554 8.519 8.09a1 1 0 0 0 1.992.18c.58-6.436-7.507-9.42-9.539-10.066z" fill="#ff7b29" opacity="1" data-original="#000000"></path><path d="M10.63 29.509a1.007 1.007 0 0 0 1.66-.002l2.642-3.939a1.624 1.624 0 0 1 1.326-.708l10.184.12a3.3 3.3 0 0 0 3.328-3.3v-3.21a1 1 0 0 0-2 0v3.21a1.312 1.312 0 0 1-1.308 1.3l-10.192-.12a3.634 3.634 0 0 0-2.99 1.583l-1.821 2.714-2.151-3.193a1.644 1.644 0 0 1-.278-.894V11.71a1.302 1.302 0 0 1 1.3-1.3h16.14a1.301 1.301 0 0 1 1.3 1.3v2.76a1 1 0 0 0 2 0v-2.76a3.304 3.304 0 0 0-3.3-3.3H10.33a3.304 3.304 0 0 0-3.3 3.3v11.36a3.648 3.648 0 0 0 .61 1.998zM53.37 34.491a1.007 1.007 0 0 0-1.66.002l-2.642 3.939a1.624 1.624 0 0 1-1.326.708l-10.184-.12a3.3 3.3 0 0 0-3.328 3.3v3.21a1 1 0 0 0 2 0v-3.21a1.291 1.291 0 0 1 1.308-1.3l10.192.12a3.634 3.634 0 0 0 2.99-1.583l1.822-2.714 2.15 3.194a1.644 1.644 0 0 1 .278.893v11.36a1.302 1.302 0 0 1-1.3 1.3H37.53a1.301 1.301 0 0 1-1.3-1.3v-2.76a1 1 0 0 0-2 0v2.76a3.304 3.304 0 0 0 3.3 3.3h16.14a3.304 3.304 0 0 0 3.3-3.3V40.93a3.648 3.648 0 0 0-.61-1.998z" fill="#ff7b29" opacity="1" data-original="#000000"></path></g></svg>