<svg xmlns="http://www.w3.org/2000/svg" xmlns:xlink="http://www.w3.org/1999/xlink" width="50" height="50" x="0" y="0" viewBox="0 0 682.667 682.667" style="enable-background:new 0 0 512 512" xml:space="preserve" class=""><g><defs><clipPath id="a"><path d="M0 512h512V0H0Z" fill="#ff7b29" opacity="1" data-original="#000000"></path></clipPath></defs><path d="M0 0h-161.12" style="stroke-width:20;stroke-linecap:round;stroke-linejoin:round;stroke-miterlimit:10;stroke-dasharray:none;stroke-opacity:1" transform="matrix(1.33333 0 0 -1.33333 549.333 173.333)" fill="none" stroke="#ff7b29" stroke-width="20" stroke-linecap="round" stroke-linejoin="round" stroke-miterlimit="10" stroke-dasharray="none" stroke-opacity="" data-original="#000000" opacity="1" class=""></path><g clip-path="url(#a)" transform="matrix(1.33333 0 0 -1.33333 0 682.667)"><path d="M0 0h96c16.44 0 30.2 13.19 30 29.63C125.8 46.37 139.31 60 156 60h156c16.57 0 30 13.43 30 30s-13.43 30-30 30h-36c-16.57 0-30 13.43-30 30s-13.43 30-30 30h-46" style="stroke-width:20;stroke-linecap:round;stroke-linejoin:round;stroke-miterlimit:10;stroke-dasharray:none;stroke-opacity:1" transform="translate(10 76)" fill="none" stroke="#ff7b29" stroke-width="20" stroke-linecap="round" stroke-linejoin="round" stroke-miterlimit="10" stroke-dasharray="none" stroke-opacity="" data-original="#000000" opacity="1" class=""></path><path d="M0 0h-142.14" style="stroke-width:20;stroke-linecap:round;stroke-linejoin:round;stroke-miterlimit:10;stroke-dasharray:none;stroke-opacity:1" transform="translate(152.14 256)" fill="none" stroke="#ff7b29" stroke-width="20" stroke-linecap="round" stroke-linejoin="round" stroke-miterlimit="10" stroke-dasharray="none" stroke-opacity="" data-original="#000000" opacity="1" class=""></path><path d="M0 0c-16.54 0-30 13.46-30 30s13.46 30 30 30 30-13.46 30-30S16.54 0 0 0Z" style="stroke-width:20;stroke-linecap:round;stroke-linejoin:round;stroke-miterlimit:10;stroke-dasharray:none;stroke-opacity:1" transform="translate(166 382)" fill="none" stroke="#ff7b29" stroke-width="20" stroke-linecap="round" stroke-linejoin="round" stroke-miterlimit="10" stroke-dasharray="none" stroke-opacity="" data-original="#000000" opacity="1" class=""></path><path d="m0 0-77.99 135.06A90.024 90.024 0 0 0-84.88 150c-3.32 9.38-5.12 19.48-5.12 30 0 49.71 40.29 90 90 90s90-40.29 90-90c0-10.52-1.8-20.62-5.12-30a90.024 90.024 0 0 0-6.89-14.94L0 0" style="stroke-width:20;stroke-linecap:round;stroke-linejoin:round;stroke-miterlimit:10;stroke-dasharray:none;stroke-opacity:1" transform="translate(166 232)" fill="none" stroke="#ff7b29" stroke-width="20" stroke-linecap="round" stroke-linejoin="round" stroke-miterlimit="10" stroke-dasharray="none" stroke-opacity="" data-original="#000000" opacity="1" class=""></path><path d="M0 0h-60c-16.57 0-30 13.43-30 30s13.43 30 30 30H0" style="stroke-width:20;stroke-linecap:round;stroke-linejoin:round;stroke-miterlimit:10;stroke-dasharray:none;stroke-opacity:1" transform="translate(412 256)" fill="none" stroke="#ff7b29" stroke-width="20" stroke-linecap="round" stroke-linejoin="round" stroke-miterlimit="10" stroke-dasharray="none" stroke-opacity="" data-original="#000000" opacity="1" class=""></path><path d="M0 0c0-5.522-4.477-10-10-10S-20-5.522-20 0s4.477 10 10 10S0 5.522 0 0" style="fill-opacity:1;fill-rule:nonzero;stroke:none" transform="translate(266 10)" fill="#ff7b29" data-original="#000000" opacity="1"></path><path d="M0 0h-71.12v-372h201" style="stroke-width:20;stroke-linecap:round;stroke-linejoin:round;stroke-miterlimit:10;stroke-dasharray:none;stroke-opacity:1" transform="translate(81.12 382)" fill="none" stroke="#ff7b29" stroke-width="20" stroke-linecap="round" stroke-linejoin="round" stroke-miterlimit="10" stroke-dasharray="none" stroke-opacity="" data-original="#000000" opacity="1" class=""></path><path d="M0 0h141c33.14 0 60 26.86 60 60s-26.86 60-60 60h-30v312h30c33.14 0 60-26.86 60-60V60" style="stroke-width:20;stroke-linecap:round;stroke-linejoin:round;stroke-miterlimit:10;stroke-dasharray:none;stroke-opacity:1" transform="translate(301 10)" fill="none" stroke="#ff7b29" stroke-width="20" stroke-linecap="round" stroke-linejoin="round" stroke-miterlimit="10" stroke-dasharray="none" stroke-opacity="" data-original="#000000" opacity="1" class=""></path></g></g></svg>